<?xml version="1.0" encoding="utf-8"?>
<!-- Generator: Adobe Illustrator 22.0.1, SVG Export Plug-In . SVG Version: 6.00 Build 0)  -->
<svg version="1.1" id="Layer_1" xmlns="http://www.w3.org/2000/svg" xmlns:xlink="http://www.w3.org/1999/xlink" x="0px" y="0px"
	 viewBox="0 0 234 116.7" style="enable-background:new 0 0 234 116.7;" xml:space="preserve">
<style type="text/css">
	.st0{font-family:'MyriadPro-Regular';}
	.st1{font-size:12px;}
	.st2{fill:none;stroke:#000000;stroke-miterlimit:10;}
	.st3{fill:none;stroke:#000000;stroke-miterlimit:10;stroke-dasharray:1.877,1.877;}
	.st4{fill:none;stroke:#000000;stroke-linecap:square;stroke-miterlimit:10;}
</style>
<g>
	<text transform="matrix(1 0 0 1 127.9726 106.2687)" class="st0 st1">Photodetector</text>
	<rect x="124.1" y="92.9" class="st2" width="96.2" height="19"/>
</g>
<g>
	<text transform="matrix(1 0 0 1 106.0167 57.6656)" class="st0 st1">Amplifier</text>
	<polygon class="st2" points="172.2,37.8 98.5,46.3 98.5,59.6 172.2,68.2 	"/>
</g>
<g>
	<text transform="matrix(1 0 0 1 31.2362 57.6103)" class="st0 st1">Adder</text>
	<path class="st2" d="M69.7,43.5H30.4c-3.2,0-5.9,2.6-5.9,5.9v7.2c0,3.2,2.6,5.9,5.9,5.9h39.3c3.2,0,5.9-2.6,5.9-5.9v-7.2
		C75.6,46.1,73,43.5,69.7,43.5z"/>
</g>
<g>
	<text transform="matrix(1 0 0 1 25.5699 18.1656)" class="st0 st1">DC bias</text>
	<rect x="21.6" y="4.8" class="st2" width="57" height="19"/>
</g>
<g>
	<text transform="matrix(1 0 0 1 11.5697 106.9353)" class="st0 st1">Laser Diode</text>
	<rect x="2.7" y="92.9" class="st2" width="94.7" height="19"/>
</g>
<g>
	<g>
		<line class="st2" x1="97.4" y1="102.4" x2="98.4" y2="102.4"/>
		<line class="st3" x1="100.3" y1="102.4" x2="118.1" y2="102.4"/>
		<line class="st2" x1="119.1" y1="102.4" x2="120.1" y2="102.4"/>
		<g>
			<path d="M119.2,102.4l-1.1-1.8l0.1,0l2.9,1.2c1,0.2,2,0.5,3.1,0.7c-1,0.2-2,0.5-3.1,0.7l-2.9,1.2l-0.1,0L119.2,102.4z"/>
		</g>
	</g>
</g>
<line class="st4" x1="187.3" y1="92.9" x2="187.3" y2="53"/>
<g>
	<g>
		<line class="st4" x1="176.3" y1="53" x2="187.3" y2="53"/>
		<g>
			<path d="M177.2,53l1.1-1.8l-0.1,0l-2.9,1.2c-1,0.2-2,0.5-3.1,0.7c1,0.2,2,0.5,3.1,0.7l2.9,1.2l0.1,0L177.2,53z"/>
		</g>
	</g>
</g>
<g>
	<g>
		<line class="st2" x1="79.7" y1="53" x2="97.4" y2="53"/>
		<g>
			<path d="M80.6,53l1.1-1.8l-0.1,0l-2.9,1.2c-1,0.2-2,0.5-3.1,0.7c1,0.2,2,0.5,3.1,0.7l2.9,1.2l0.1,0L80.6,53z"/>
		</g>
	</g>
</g>
<g>
	<g>
		<line class="st2" x1="50.1" y1="23.8" x2="50.1" y2="39.4"/>
		<g>
			<path d="M50.1,38.5l1.8-1.1l0,0.1l-1.2,2.9c-0.2,1-0.5,2-0.7,3.1c-0.2-1-0.5-2-0.7-3.1l-1.2-2.9l0-0.1L50.1,38.5z"/>
		</g>
	</g>
</g>
<g>
	<g>
		<line class="st2" x1="50.1" y1="62.5" x2="50.1" y2="88.8"/>
		<g>
			<path d="M50.1,87.9l1.8-1.1l0,0.1l-1.2,2.9c-0.2,1-0.5,2-0.7,3.1c-0.2-1-0.5-2-0.7-3.1l-1.2-2.9l0-0.1L50.1,87.9z"/>
		</g>
	</g>
</g>
</svg>
