<?xml version="1.0" encoding="utf-8"?>
<!-- Generator: Adobe Illustrator 22.0.1, SVG Export Plug-In . SVG Version: 6.00 Build 0)  -->
<svg version="1.1" id="Layer_1" xmlns="http://www.w3.org/2000/svg" xmlns:xlink="http://www.w3.org/1999/xlink" x="0px" y="0px"
	 viewBox="0 0 145.5 86.4" style="enable-background:new 0 0 145.5 86.4;" xml:space="preserve">
<style type="text/css">
	.st0{fill:none;stroke:#000000;stroke-miterlimit:10;}
	.st1{font-family:'MyriadPro-Regular';}
	.st2{font-size:12px;}
	.st3{fill:none;stroke:#000000;stroke-width:0.5;stroke-miterlimit:10;}
	.st4{fill:none;stroke:#000000;stroke-width:0.5;stroke-linecap:square;stroke-miterlimit:10;}
</style>
<g>
	<rect x="34.5" y="1.4" class="st0" width="19" height="19"/>
	<text transform="matrix(0.4717 0 0 1 39.8663 13.8288)" class="st1 st2">$x$</text>
</g>
<g>
	<rect x="34.5" y="25.7" class="st0" width="19" height="19"/>
	<text transform="matrix(0.3479 0 0 1 39.867 38.1793)" class="st1 st2">$y$</text>
</g>
<g>
	<rect x="34.5" y="50.1" class="st0" width="19" height="19"/>
	<text transform="matrix(0.3684 0 0 1 39.8671 62.5289)" class="st1 st2">$z$</text>
</g>
<g>
	<rect x="107.5" y="25.9" class="st0" width="19" height="19"/>
	<text transform="matrix(0.4039 0 0 1 112.9117 38.3626)" class="st1 st2">$y&apos;$</text>
</g>
<g>
	<rect x="107.5" y="50.1" class="st0" width="19" height="19"/>
	<text transform="matrix(0.4039 0 0 1 112.9117 62.5288)" class="st1 st2">$z&apos;$</text>
</g>
<g>
	<g>
		<g>
			<line class="st3" x1="53.5" y1="10.9" x2="84.3" y2="10.9"/>
			<g>
				<path d="M83.6,10.9l-0.8-1.4l0,0l2.2,0.9c0.8,0.2,1.5,0.3,2.3,0.5c-0.8,0.2-1.5,0.3-2.3,0.5l-2.2,0.9l0,0L83.6,10.9z"/>
			</g>
		</g>
	</g>
	<line class="st3" x1="77.6" y1="10.9" x2="117" y2="10.9"/>
</g>
<line class="st3" x1="44" y1="20.4" x2="44" y2="25.7"/>
<line class="st3" x1="44" y1="44.8" x2="44" y2="50.4"/>
<line class="st3" x1="117" y1="44.9" x2="117" y2="50.1"/>
<line class="st3" x1="117" y1="10.9" x2="117" y2="25.7"/>
<line class="st3" x1="137.9" y1="10.9" x2="117" y2="10.9"/>
<line class="st4" x1="137.9" y1="59.6" x2="137.9" y2="10.9"/>
<line class="st4" x1="137.9" y1="59.6" x2="126.5" y2="59.6"/>
<g>
	<g>
		<path d="M137.9,32.7l1.4-0.8l0,0l-0.9,2.2c-0.2,0.8-0.3,1.5-0.5,2.3c-0.2-0.8-0.3-1.5-0.5-2.3l-0.9-2.2l0,0L137.9,32.7z"/>
	</g>
</g>
<g>
	<g>
		<path d="M117,17.6l1.4-0.8l0,0l-0.9,2.2c-0.2,0.8-0.3,1.5-0.5,2.3c-0.2-0.8-0.3-1.5-0.5-2.3l-0.9-2.2l0,0L117,17.6z"/>
	</g>
</g>
<line class="st4" x1="34.5" y1="10.9" x2="29" y2="10.9"/>
<line class="st3" x1="34.5" y1="59.6" x2="29" y2="59.6"/>
<line class="st4" x1="29" y1="10.9" x2="29" y2="59.6"/>
<text transform="matrix(1 0 0 1 15 82.6398)" class="st1 st2">transmitter</text>
<text transform="matrix(1 0 0 1 99.25 82.6398)" class="st1 st2">receiver</text>
</svg>
