<?xml version="1.0" encoding="utf-8"?>
<!-- Generator: Adobe Illustrator 22.0.1, SVG Export Plug-In . SVG Version: 6.00 Build 0)  -->
<svg version="1.1" xmlns="http://www.w3.org/2000/svg" xmlns:xlink="http://www.w3.org/1999/xlink" x="0px" y="0px"
	 viewBox="0 0 242.8 182.9" style="enable-background:new 0 0 242.8 182.9;" xml:space="preserve">
<style type="text/css">
	.st0{fill:none;stroke:#FFFFFF;stroke-width:0.5;stroke-miterlimit:10;}
	.st1{fill:#FFFFFF;}
	.st2{font-family:'MyriadPro-Regular';}
	.st3{font-size:12px;}
	.st4{fill:none;stroke:#FFFFFF;stroke-miterlimit:10;}
	.st5{fill:none;stroke:#FFFFFF;stroke-miterlimit:10;stroke-dasharray:1.9899,1.9899;}
	.st6{fill:none;stroke:#FFFFFF;stroke-width:2;stroke-miterlimit:10;}
</style>
<g id="Слой_1">
	
		<image style="overflow:visible;" width="4000" height="3000" xlink:href="../../../../../../../google_drive/ЖиК/labs/cq4/Photos/proflex.jpg"  transform="matrix(6.080273e-02 0 0 6.080273e-02 0 0.2459)">
	</image>
</g>
<g id="Слой_2">
	<line class="st0" x1="138.2" y1="115" x2="129.4" y2="115"/>
	<polyline class="st0" points="119.4,107.2 138.4,107.2 140.2,110.4 	"/>
	<rect x="120.2" y="86.9" class="st1" width="32.3" height="17.3"/>
	<text transform="matrix(0.2096 0 0 1 122.1667 99.7827)" class="st2 st3">$I_{\mathrm{bias}}$</text>
	
		<rect x="80.5" y="113.6" transform="matrix(-1 -1.224647e-16 1.224647e-16 -1 191.5932 244.5285)" class="st1" width="30.6" height="17.3"/>
	<text transform="matrix(0.2096 0 0 1 83.2183 126.4311)" class="st2 st3">$I_{\mathrm{mod}}$</text>
	<line class="st0" x1="129.4" y1="115" x2="112.6" y2="132.5"/>
	<line class="st0" x1="79.7" y1="132.4" x2="112.6" y2="132.4"/>
	<rect x="163.9" y="108.8" class="st1" width="36.4" height="17.3"/>
	<text transform="matrix(0.2263 0 0 1 165.8542 121.629)" class="st2 st3">GND</text>
	<polyline class="st0" points="148.3,115.8 161.4,128.4 193.5,128.4 	"/>
	<rect x="138.2" y="147.5" class="st1" width="89.8" height="17.3"/>
	<text transform="matrix(1 0 0 1 142.25 160.8898)" class="st2 st3">transmitter</text>
	<rect x="11.4" y="147.5" class="st1" width="89.8" height="17.3"/>
	<text transform="matrix(1 0 0 1 24.5 160.8898)" class="st2 st3">receiver</text>
	<g>
		<g>
			<path class="st4" d="M211,44.1c0-0.3,0-0.7,0-1"/>
			<path class="st5" d="M211,41.2c-0.2-5.2-1.5-11.5-6-15.8c-9.2-8.9-22.5-0.6-46.5-1.8c-31.6-1.5-43.2-17.5-56.5-9.8
				c-5,2.9-10.9,9.6-12.8,26.8"/>
			<path class="st4" d="M89.1,41.6c0,0.3-0.1,0.7-0.1,1"/>
		</g>
	</g>
	<line class="st0" x1="33.4" y1="89.1" x2="41.9" y2="80.7"/>
	<line class="st0" x1="41.9" y1="80.7" x2="51.3" y2="80.7"/>
	<rect x="40.7" y="60.2" class="st1" width="55.1" height="17.3"/>
	<text transform="matrix(1 0 0 1 44.75 73.5564)" class="st2 st3">output</text>
	<g>
		<g>
			<line class="st6" x1="71.8" y1="80.7" x2="84.3" y2="105"/>
			<g>
				<path class="st1" d="M87,110.4c-2.2-2.1-5.4-4.4-8.1-5.5l5-0.6l3.5-3.7C86.6,103.5,86.6,107.4,87,110.4z"/>
			</g>
		</g>
	</g>
</g>
</svg>
