<?xml version="1.0" encoding="utf-8"?>
<!-- Generator: Adobe Illustrator 22.0.1, SVG Export Plug-In . SVG Version: 6.00 Build 0)  -->
<svg version="1.1" xmlns="http://www.w3.org/2000/svg" xmlns:xlink="http://www.w3.org/1999/xlink" x="0px" y="0px"
	 viewBox="0 0 356.9 159.5" style="enable-background:new 0 0 356.9 159.5;" xml:space="preserve">
<style type="text/css">
	.st0{fill:none;stroke:#008000;stroke-width:0.75;stroke-linecap:square;stroke-miterlimit:10;}
	.st1{fill:none;stroke:#0000FF;stroke-width:0.75;stroke-linecap:square;stroke-miterlimit:10;}
	.st2{fill:#000105;}
	.st3{font-family:'MyriadPro-Regular';}
	.st4{font-size:8.9961px;}
	.st5{font-size:12px;}
	.st6{fill-rule:evenodd;clip-rule:evenodd;fill:#0000FF;}
	.st7{fill-rule:evenodd;clip-rule:evenodd;fill:#FF0000;}
	.st8{fill:#486E4F;}
	.st9{fill-rule:evenodd;clip-rule:evenodd;fill:#44664B;}
	.st10{fill:none;stroke:#000000;stroke-width:0.75;stroke-miterlimit:10;}
	.st11{fill:none;stroke:#000000;stroke-width:0.75;stroke-miterlimit:10;stroke-dasharray:2.0103,2.0103;}
	.st12{opacity:0.12;fill:#58AD62;}
</style>
<g id="Слой_1">
	<line class="st0" x1="222.7" y1="75.4" x2="234.7" y2="75.4"/>
	<line class="st0" x1="234.7" y1="33.4" x2="234.7" y2="75.4"/>
	<line class="st0" x1="120.7" y1="33.4" x2="126.7" y2="33.4"/>
	<line class="st0" x1="126.7" y1="33.4" x2="126.7" y2="57.4"/>
	<line class="st0" x1="120.7" y1="81.4" x2="126.7" y2="81.4"/>
	<line class="st0" x1="126.7" y1="57.4" x2="150.7" y2="57.4"/>
	<line class="st0" x1="126.7" y1="57.4" x2="126.7" y2="81.4"/>
	<line class="st0" x1="150.7" y1="33.4" x2="150.7" y2="57.4"/>
	<line class="st0" x1="150.7" y1="57.4" x2="180.7" y2="57.4"/>
	<line class="st0" x1="72.7" y1="33.4" x2="84.7" y2="33.4"/>
	<line class="st0" x1="72.7" y1="81.4" x2="84.7" y2="81.4"/>
	<line class="st0" x1="150.7" y1="93.4" x2="180.7" y2="93.4"/>
	<line class="st0" x1="234.7" y1="75.4" x2="270.6" y2="75.4"/>
	<line class="st0" x1="150.7" y1="135.4" x2="270.6" y2="135.4"/>
	<line class="st0" x1="72.7" y1="135.4" x2="108.7" y2="135.4"/>
	<line class="st0" x1="72.7" y1="123.4" x2="72.7" y2="135.4"/>
	<line class="st0" x1="150.7" y1="33.4" x2="168.7" y2="33.4"/>
	<line class="st0" x1="204.7" y1="33.4" x2="234.7" y2="33.4"/>
	<line class="st0" x1="72.7" y1="81.4" x2="72.7" y2="87.4"/>
	<line class="st0" x1="270.6" y1="75.4" x2="270.6" y2="87.4"/>
	<line class="st0" x1="270.6" y1="123.4" x2="270.6" y2="135.4"/>
	<line class="st0" x1="30.7" y1="33.2" x2="36.7" y2="33.2"/>
	<line class="st0" x1="30.7" y1="33.4" x2="30.7" y2="135.4"/>
	<line class="st0" x1="30.7" y1="135.4" x2="72.7" y2="135.4"/>
	<line class="st0" x1="108.7" y1="135.4" x2="150.7" y2="135.4"/>
	<polyline class="st1" points="84.7,33.4 84.7,33.4 93.7,33.4 95.2,30.4 98.2,36.4 101.2,30.4 104.2,36.4 107.2,30.4 110.2,36.4 
		111.7,33.4 120.7,33.4 	"/>
	<text transform="matrix(1 0 0 1 101.1602 27.5602)" class="st2 st3 st4">$R$</text>
	<line class="st1" x1="180.7" y1="57.4" x2="185.2" y2="57.4"/>
	<line class="st1" x1="180.7" y1="93.4" x2="184.4" y2="93.4"/>
	<line class="st1" x1="185.2" y1="96.4" x2="185.2" y2="54.4"/>
	<line class="st1" x1="185.2" y1="96.4" x2="216.7" y2="75.4"/>
	<line class="st1" x1="185.2" y1="54.4" x2="216.7" y2="75.4"/>
	<line class="st1" x1="216.7" y1="75.4" x2="234.7" y2="75.4"/>
	<line class="st1" x1="188.2" y1="84.4" x2="191.2" y2="84.4"/>
	<line class="st1" x1="189.7" y1="85.9" x2="189.7" y2="82.9"/>
	<line class="st1" x1="188.2" y1="66.4" x2="191.2" y2="66.4"/>
	<line class="st1" x1="183.7" y1="93.4" x2="185.2" y2="93.4"/>
	<line class="st1" x1="197.9" y1="96.4" x2="200.9" y2="96.4"/>
	<line class="st1" x1="199.4" y1="97.9" x2="199.4" y2="94.9"/>
	<line class="st1" x1="197.9" y1="54.4" x2="200.9" y2="54.4"/>
	<line class="st1" x1="204.7" y1="51.4" x2="204.7" y2="67.9"/>
	<line class="st1" x1="204.7" y1="99.4" x2="204.7" y2="83.6"/>
	<text transform="matrix(1 0 0 1 146.7733 80.7204)"><tspan x="0" y="0" class="st2 st3 st4">O</tspan><tspan x="5.9" y="0" class="st2 st3 st4">P</tspan><tspan x="10.4" y="0" class="st2 st3 st4">A</tspan></text>
	<polyline class="st1" points="84.7,81.4 84.7,81.4 93.7,81.4 95.2,78.4 98.2,84.4 101.2,78.4 104.2,84.4 107.2,78.4 110.2,84.4 
		111.7,81.4 120.7,81.4 	"/>
	<text transform="matrix(1 0 0 1 101.1602 75.5602)" class="st2 st3 st4">$R$</text>
	<polyline class="st1" points="168.7,33.4 168.7,33.4 177.7,33.4 179.2,30.4 182.2,36.4 185.2,30.4 188.2,36.4 191.2,30.4 
		194.2,36.4 195.7,33.4 204.7,33.4 	"/>
	<text transform="matrix(1 0 0 1 183.7197 26.8395)" class="st2 st3 st4">$R$</text>
	<line class="st1" x1="243.5" y1="135.4" x2="243.5" y2="144.4"/>
	<line class="st1" x1="237.5" y1="144.4" x2="249.5" y2="144.4"/>
	<line class="st1" x1="240.5" y1="146.9" x2="246.5" y2="146.9"/>
	<line class="st1" x1="108.7" y1="153.4" x2="108.7" y2="153.4"/>
	<line class="st1" x1="72.7" y1="87.4" x2="72.7" y2="103.9"/>
	<line class="st1" x1="70.5" y1="103.9" x2="75" y2="103.9"/>
	<line class="st1" x1="67.5" y1="106.9" x2="78" y2="106.9"/>
	<line class="st1" x1="72.7" y1="106.9" x2="72.7" y2="123.4"/>
	<text transform="matrix(1 0 0 1 78.7198 119.9883)"><tspan x="0" y="0" class="st2 st3 st4">D</tspan><tspan x="5.8" y="0" class="st2 st3 st4">C</tspan><tspan x="10.7" y="0" class="st2 st3 st5"> </tspan><tspan x="13.2" y="0" class="st2 st3 st4">b</tspan><tspan x="18" y="0" class="st2 st3 st4">i</tspan><tspan x="19.9" y="0" class="st2 st3 st4">a</tspan><tspan x="24" y="0" class="st2 st3 st4">s</tspan></text>
	<line class="st1" x1="72.7" y1="33.4" x2="57.7" y2="33.4"/>
	<line class="st1" x1="53.2" y1="33.2" x2="36.7" y2="33.2"/>
	<rect x="57.7" y="27.4" class="st6" width="1.5" height="12"/>
	<rect x="57.7" y="27.4" class="st1" width="1.5" height="12"/>
	<polygon class="st6" points="57.7,33.4 51.7,39.4 51.7,27.4 	"/>
	<polygon class="st1" points="57.7,33.4 51.7,39.4 51.7,27.4 	"/>
	<line class="st1" x1="54.7" y1="49.9" x2="54.7" y2="36.4"/>
	<line class="st1" x1="65.2" y1="49.9" x2="60.7" y2="45.4"/>
	<line class="st1" x1="69.7" y1="45.4" x2="65.2" y2="40.9"/>
	<polygon class="st6" points="62.2,43.9 59.2,46.9 59.2,43.9 	"/>
	<polygon class="st1" points="62.2,43.9 59.2,46.9 59.2,43.9 	"/>
	<polygon class="st6" points="66.7,39.4 63.7,42.4 63.7,39.4 	"/>
	<polygon class="st1" points="66.7,39.4 63.7,42.4 63.7,39.4 	"/>
	<text transform="matrix(1 0 0 1 9.6066 19.8102)"><tspan x="0" y="0" class="st2 st3 st4">P</tspan><tspan x="4.7" y="0" class="st2 st3 st4">h</tspan><tspan x="9.2" y="0" class="st2 st3 st4">o</tspan><tspan x="14" y="0" class="st2 st3 st4">t</tspan><tspan x="16.4" y="0" class="st2 st3 st4">o</tspan><tspan x="21.1" y="0" class="st2 st3 st4">d</tspan><tspan x="25.8" y="0" class="st2 st3 st4">i</tspan><tspan x="27.8" y="0" class="st2 st3 st4">o</tspan><tspan x="32.6" y="0" class="st2 st3 st4">d</tspan><tspan x="37.2" y="0" class="st2 st3 st4">e</tspan></text>
	<circle class="st1" cx="54.7" cy="51.4" r="1.5"/>
	<line class="st1" x1="270.6" y1="87.4" x2="270.6" y2="102.4"/>
	<line class="st1" x1="270.6" y1="108.4" x2="270.6" y2="123.4"/>
	<rect x="264.6" y="100.9" class="st6" width="12" height="1.5"/>
	<rect x="264.6" y="100.9" class="st1" width="12" height="1.5"/>
	<polygon class="st6" points="270.6,102.4 276.6,108.4 264.6,108.4 	"/>
	<polygon class="st1" points="270.6,102.4 276.6,108.4 264.6,108.4 	"/>
	<text transform="matrix(1 0 0 1 280.4399 104.7204)"><tspan x="0" y="0" class="st2 st3 st4">L</tspan><tspan x="3.7" y="0" class="st2 st3 st4">a</tspan><tspan x="7.9" y="0" class="st2 st3 st4">s</tspan><tspan x="11.2" y="0" class="st2 st3 st4">e</tspan><tspan x="15.7" y="0" class="st2 st3 st4">r</tspan><tspan x="18.5" y="0" class="st2 st3 st5"> </tspan><tspan x="21" y="0" class="st2 st3 st4">D</tspan><tspan x="26.7" y="0" class="st2 st3 st4">i</tspan><tspan x="28.7" y="0" class="st2 st3 st4">o</tspan><tspan x="33.5" y="0" class="st2 st3 st4">d</tspan><tspan x="38.2" y="0" class="st2 st3 st4">e</tspan></text>
	<path class="st7" d="M236.1,75.4c0-0.8-0.6-1.4-1.4-1.4c-0.8,0-1.4,0.6-1.4,1.4c0,0.8,0.6,1.4,1.4,1.4
		C235.4,76.8,236.1,76.2,236.1,75.4z"/>
	<path class="st7" d="M152.1,57.4c0-0.8-0.6-1.4-1.4-1.4c-0.8,0-1.4,0.6-1.4,1.4c0,0.8,0.6,1.4,1.4,1.4
		C151.5,58.8,152.1,58.2,152.1,57.4z"/>
	<path class="st7" d="M128,57.2c0-0.8-0.6-1.4-1.4-1.4c-0.8,0-1.4,0.6-1.4,1.4c0,0.8,0.6,1.4,1.4,1.4C127.4,58.6,128,58,128,57.2z"
		/>
	<text transform="matrix(1 0 0 1 214.0008 23.5602)" class="st8 st3 st5">Adder/Amplifier</text>
	<path class="st7" d="M244.9,135.4c0-0.8-0.6-1.4-1.4-1.4c-0.8,0-1.4,0.6-1.4,1.4c0,0.8,0.6,1.4,1.4,1.4
		C244.3,136.8,244.9,136.1,244.9,135.4z"/>
	<path class="st7" d="M74.1,135.2c0-0.8-0.6-1.4-1.4-1.4c-0.8,0-1.4,0.6-1.4,1.4c0,0.8,0.6,1.4,1.4,1.4
		C73.5,136.6,74.1,136,74.1,135.2z"/>
	<path class="st9" d="M83.1,33.2c0-0.8-0.6-1.4-1.4-1.4c-0.8,0-1.4,0.6-1.4,1.4c0,0.8,0.6,1.4,1.4,1.4C82.5,34.7,83.1,34,83.1,33.2z
		"/>
	<path class="st9" d="M83.1,81.4c0-0.8-0.6-1.4-1.4-1.4c-0.8,0-1.4,0.6-1.4,1.4c0,0.8,0.6,1.4,1.4,1.4
		C82.5,82.8,83.1,82.2,83.1,81.4z"/>
	<path class="st9" d="M257.8,75.4c0-0.8-0.6-1.4-1.4-1.4c-0.8,0-1.4,0.6-1.4,1.4c0,0.8,0.6,1.4,1.4,1.4
		C257.1,76.8,257.8,76.2,257.8,75.4z"/>
	<line class="st1" x1="150.3" y1="93.4" x2="141.3" y2="93.4"/>
	<line class="st1" x1="141.3" y1="99.4" x2="141.3" y2="87.4"/>
	<line class="st1" x1="138.7" y1="96.4" x2="138.7" y2="90.4"/>
	<g>
		<g>
			<path class="st10" d="M270.3,106.2c-0.3,0-0.7,0-1,0"/>
			<path class="st11" d="M267.3,106.3c-37.6,0.4-61.4,7.4-76.5,14.1c-3.8,1.7-10.6,4.9-25.8,11.7c-23.3,10.4-35,15.6-40.8,17.7
				c-19,6.8-59.3,14-82-4.3c-21.5-17.4-30.6-67.2,10.7-93"/>
			<path class="st10" d="M53.9,51.8c0.3-0.2,0.6-0.3,0.9-0.5"/>
		</g>
	</g>
	<text transform="matrix(2.331286e-02 -0.9997 0.9997 2.331286e-02 18.2805 148.3646)" class="st3 st5">Optical fiber</text>
</g>
<g id="Слой_2">
	<path class="st12" d="M244.3,8.8H93.7c-6.6,0-12,5.4-12,12v75c0,6.6,5.4,12,12,12h150.6c6.6,0,12-5.4,12-12v-75
		C256.3,14.2,250.9,8.8,244.3,8.8z"/>
</g>
</svg>
